<svg xmlns="http://www.w3.org/2000/svg" height="512pt" version="1.1" viewBox="0 0 512 512.00099" width="512pt">
<g id="surface1">
<path d="M 7.515625 296.078125 L 504.484375 296.078125 L 504.484375 504.484375 L 7.515625 504.484375 Z M 7.515625 296.078125 " style=" stroke:none;fill-rule:nonzero;fill:rgb(74.509804%,90.980392%,51.372549%);fill-opacity:1;" />
<path d="M 7.515625 296.078125 L 504.484375 296.078125 L 504.484375 504.484375 L 7.515625 504.484375 Z M 7.515625 296.078125 " style=" stroke:none;fill-rule:nonzero;fill:rgb(74.509804%,90.980392%,51.372549%);fill-opacity:1;" />
<path d="M 7.515625 296.078125 L 504.484375 296.078125 L 504.484375 504.484375 L 7.515625 504.484375 Z M 7.515625 296.078125 " style=" stroke:none;fill-rule:nonzero;fill:rgb(74.509804%,90.980392%,51.372549%);fill-opacity:1;" />
<path d="M 504.484375 504.484375 L 480.4375 504.484375 L 408.296875 296.078125 L 504.484375 296.078125 Z M 504.484375 504.484375 " style=" stroke:none;fill-rule:nonzero;fill:rgb(87.45098%,90.980392%,50.980392%);fill-opacity:1;" />
<path d="M 7.515625 504.484375 L 31.5625 504.484375 L 103.703125 296.078125 L 7.515625 296.078125 Z M 7.515625 504.484375 " style=" stroke:none;fill-rule:nonzero;fill:rgb(87.45098%,90.980392%,50.980392%);fill-opacity:1;" />
<path d="M 352.1875 504.484375 L 159.8125 504.484375 L 207.90625 296.078125 L 304.09375 296.078125 Z M 352.1875 504.484375 " style=" stroke:none;fill-rule:nonzero;fill:rgb(87.45098%,90.980392%,50.980392%);fill-opacity:1;" />
<path d="M 464.40625 191.875 C 464.40625 200.726562 457.230469 207.90625 448.375 207.90625 C 439.519531 207.90625 432.34375 200.726562 432.34375 191.875 C 432.34375 183.019531 439.519531 175.84375 448.375 175.84375 C 457.230469 175.84375 464.40625 183.019531 464.40625 191.875 Z M 464.40625 191.875 " style=" stroke:none;fill-rule:nonzero;fill:rgb(51.764706%,87.843137%,92.941176%);fill-opacity:1;" />
<path d="M 79.65625 191.875 C 79.65625 200.726562 72.480469 207.90625 63.625 207.90625 C 54.769531 207.90625 47.59375 200.726562 47.59375 191.875 C 47.59375 183.019531 54.769531 175.84375 63.625 175.84375 C 72.480469 175.84375 79.65625 183.019531 79.65625 191.875 Z M 79.65625 191.875 " style=" stroke:none;fill-rule:nonzero;fill:rgb(51.764706%,87.843137%,92.941176%);fill-opacity:1;" />
<path d="M 272.03125 223.9375 C 272.03125 232.789062 264.855469 239.96875 256 239.96875 C 247.144531 239.96875 239.96875 232.789062 239.96875 223.9375 C 239.96875 215.082031 247.144531 207.90625 256 207.90625 C 264.855469 207.90625 272.03125 215.082031 272.03125 223.9375 Z M 272.03125 223.9375 " style=" stroke:none;fill-rule:nonzero;fill:rgb(51.764706%,87.843137%,92.941176%);fill-opacity:1;" />
<path d="M 223.9375 87.671875 C 221.109375 87.671875 218.398438 88.164062 215.878906 89.058594 C 215.90625 88.597656 215.921875 88.136719 215.921875 87.671875 C 215.921875 74.390625 205.15625 63.625 191.875 63.625 C 178.59375 63.625 167.828125 74.390625 167.828125 87.671875 C 167.828125 88.136719 167.84375 88.601562 167.871094 89.058594 C 165.351562 88.164062 162.640625 87.671875 159.8125 87.671875 C 146.53125 87.671875 135.765625 98.4375 135.765625 111.71875 C 135.765625 125 146.53125 135.765625 159.8125 135.765625 L 223.9375 135.765625 C 237.21875 135.765625 247.984375 125 247.984375 111.71875 C 247.984375 98.4375 237.21875 87.671875 223.9375 87.671875 Z M 223.9375 87.671875 " style=" stroke:none;fill-rule:nonzero;fill:rgb(97.254902%,96.862745%,96.862745%);fill-opacity:1;" />
<path d="M 175.84375 71.640625 C 178.671875 71.640625 181.382812 72.132812 183.902344 73.027344 C 183.875 72.566406 183.859375 72.105469 183.859375 71.640625 C 183.859375 69.210938 184.222656 66.867188 184.894531 64.65625 C 180.585938 65.960938 176.792969 68.441406 173.882812 71.726562 C 174.53125 71.671875 175.183594 71.640625 175.84375 71.640625 Z M 175.84375 71.640625 " style=" stroke:none;fill-rule:nonzero;fill:rgb(88.627451%,87.45098%,87.843137%);fill-opacity:1;" />
<path d="M 239.96875 119.734375 L 175.84375 119.734375 C 162.5625 119.734375 151.796875 108.96875 151.796875 95.6875 C 151.796875 93.257812 152.160156 90.914062 152.832031 88.703125 C 142.957031 91.695312 135.765625 100.867188 135.765625 111.71875 C 135.765625 125 146.53125 135.765625 159.8125 135.765625 L 223.9375 135.765625 C 234.789062 135.765625 243.957031 128.574219 246.953125 118.699219 C 244.742188 119.371094 242.398438 119.734375 239.96875 119.734375 Z M 239.96875 119.734375 " style=" stroke:none;fill-rule:nonzero;fill:rgb(94.509804%,93.72549%,94.117647%);fill-opacity:1;" />
<path d="M 95.6875 39.578125 C 92.859375 39.578125 90.148438 40.070312 87.628906 40.964844 C 87.65625 40.503906 87.671875 40.042969 87.671875 39.578125 C 87.671875 26.296875 76.90625 15.53125 63.625 15.53125 C 50.34375 15.53125 39.578125 26.296875 39.578125 39.578125 C 39.578125 40.042969 39.59375 40.507812 39.621094 40.964844 C 37.101562 40.070312 34.390625 39.578125 31.5625 39.578125 C 18.28125 39.578125 7.515625 50.34375 7.515625 63.625 C 7.515625 76.90625 18.28125 87.671875 31.5625 87.671875 L 95.6875 87.671875 C 108.96875 87.671875 119.734375 76.90625 119.734375 63.625 C 119.734375 50.34375 108.96875 39.578125 95.6875 39.578125 Z M 95.6875 39.578125 " style=" stroke:none;fill-rule:nonzero;fill:rgb(97.254902%,96.862745%,96.862745%);fill-opacity:1;" />
<path d="M 47.59375 23.546875 C 50.421875 23.546875 53.132812 24.039062 55.652344 24.933594 C 55.625 24.472656 55.609375 24.011719 55.609375 23.546875 C 55.609375 21.117188 55.972656 18.773438 56.644531 16.5625 C 52.335938 17.867188 48.542969 20.347656 45.632812 23.632812 C 46.28125 23.578125 46.933594 23.546875 47.59375 23.546875 Z M 47.59375 23.546875 " style=" stroke:none;fill-rule:nonzero;fill:rgb(88.627451%,87.45098%,87.843137%);fill-opacity:1;" />
<path d="M 111.71875 71.640625 L 47.59375 71.640625 C 34.3125 71.640625 23.546875 60.875 23.546875 47.59375 C 23.546875 45.164062 23.910156 42.820312 24.582031 40.609375 C 14.707031 43.601562 7.515625 52.773438 7.515625 63.625 C 7.515625 76.90625 18.28125 87.671875 31.5625 87.671875 L 95.6875 87.671875 C 106.539062 87.671875 115.707031 80.480469 118.703125 70.605469 C 116.492188 71.277344 114.148438 71.640625 111.71875 71.640625 Z M 111.71875 71.640625 " style=" stroke:none;fill-rule:nonzero;fill:rgb(94.509804%,93.72549%,94.117647%);fill-opacity:1;" />
<path d="M 392.265625 79.65625 C 392.265625 101.789062 374.324219 119.734375 352.1875 119.734375 C 330.054688 119.734375 312.109375 101.789062 312.109375 79.65625 C 312.109375 57.519531 330.054688 39.578125 352.1875 39.578125 C 374.324219 39.578125 392.265625 57.519531 392.265625 79.65625 Z M 392.265625 79.65625 " style=" stroke:none;fill-rule:nonzero;fill:rgb(100%,90.588235%,50.980392%);fill-opacity:1;" />
<path d="M 335.15625 79.65625 C 335.15625 61.527344 347.195312 46.21875 363.710938 41.265625 C 360.058594 40.171875 356.195312 39.578125 352.1875 39.578125 C 330.054688 39.578125 312.109375 57.519531 312.109375 79.65625 C 312.109375 101.789062 330.054688 119.734375 352.1875 119.734375 C 356.195312 119.734375 360.058594 119.136719 363.710938 118.042969 C 347.195312 113.09375 335.15625 97.785156 335.15625 79.65625 Z M 335.15625 79.65625 " style=" stroke:none;fill-rule:nonzero;fill:rgb(100%,84.313725%,18.039216%);fill-opacity:1;" />
<path d="M 504.484375 288.5625 L 455.890625 288.5625 L 455.890625 214.183594 C 461.453125 212.304688 466.09375 208.398438 468.925781 203.347656 L 500.617188 222.367188 C 504.132812 224.472656 508.824219 223.296875 510.929688 219.789062 C 513.0625 216.230469 511.910156 211.613281 508.351562 209.476562 L 471.480469 187.355469 C 469.855469 179.015625 463.808594 172.242188 455.890625 169.566406 L 455.890625 127.75 C 455.890625 123.597656 452.527344 120.234375 448.375 120.234375 C 444.226562 120.234375 440.863281 123.597656 440.863281 127.75 L 440.863281 169.566406 C 432.941406 172.238281 426.898438 179.015625 425.269531 187.355469 L 388.402344 209.476562 C 384.84375 211.613281 383.6875 216.226562 385.824219 219.785156 C 387.929688 223.296875 392.621094 224.472656 396.132812 222.363281 L 427.828125 203.347656 C 430.660156 208.398438 435.296875 212.300781 440.863281 214.179688 L 440.863281 288.5625 L 263.515625 288.5625 L 263.515625 246.246094 C 269.082031 244.367188 273.722656 240.460938 276.550781 235.410156 L 308.246094 254.429688 C 311.757812 256.535156 316.449219 255.359375 318.554688 251.851562 C 320.691406 248.292969 319.539062 243.675781 315.976562 241.539062 L 279.109375 219.417969 C 277.480469 211.078125 271.4375 204.304688 263.519531 201.628906 L 263.519531 159.8125 C 263.519531 155.660156 260.15625 152.296875 256.003906 152.296875 C 251.851562 152.296875 248.488281 155.660156 248.488281 159.8125 L 248.488281 201.628906 C 240.570312 204.300781 234.527344 211.078125 232.898438 219.417969 L 196.027344 241.539062 C 192.46875 243.675781 191.316406 248.289062 193.449219 251.847656 C 195.558594 255.359375 200.246094 256.535156 203.761719 254.425781 L 235.453125 235.410156 C 238.285156 240.460938 242.925781 244.363281 248.488281 246.242188 L 248.488281 288.5625 L 71.144531 288.5625 L 71.144531 214.183594 C 76.707031 212.304688 81.347656 208.398438 84.179688 203.347656 L 115.875 222.367188 C 119.386719 224.472656 124.078125 223.296875 126.183594 219.789062 C 128.320312 216.230469 127.164062 211.613281 123.605469 209.476562 L 86.738281 187.355469 C 85.109375 179.015625 79.0625 172.242188 71.144531 169.566406 L 71.144531 127.75 C 71.144531 123.597656 67.78125 120.234375 63.628906 120.234375 C 59.480469 120.234375 56.117188 123.597656 56.117188 127.75 L 56.117188 169.566406 C 48.195312 172.238281 42.152344 179.015625 40.523438 187.355469 L 3.648438 209.476562 C 0.0898438 211.613281 -1.0625 216.226562 1.074219 219.789062 C 3.179688 223.296875 7.867188 224.472656 11.382812 222.363281 L 43.078125 203.347656 C 45.90625 208.398438 50.546875 212.304688 56.113281 214.183594 L 56.113281 288.5625 L 7.515625 288.5625 C 3.367188 288.5625 0.00390625 291.925781 0.00390625 296.078125 C 0.00390625 300.226562 3.367188 303.589844 7.515625 303.589844 L 93.152344 303.589844 L 24.460938 502.027344 C 23.105469 505.945312 25.183594 510.226562 29.105469 511.585938 C 29.917969 511.867188 30.75 512 31.5625 512 C 34.675781 512 37.589844 510.050781 38.664062 506.941406 L 109.054688 303.589844 L 198.460938 303.589844 L 152.492188 502.792969 C 151.558594 506.835938 154.078125 510.871094 158.125 511.804688 C 158.691406 511.9375 159.261719 512 159.820312 512 C 163.242188 512 166.332031 509.648438 167.136719 506.171875 L 213.886719 303.589844 L 298.117188 303.589844 L 312.003906 363.773438 C 312.9375 367.820312 316.972656 370.339844 321.015625 369.40625 C 325.058594 368.472656 327.582031 364.441406 326.648438 360.394531 L 313.539062 303.589844 L 402.945312 303.589844 L 473.335938 506.941406 C 474.414062 510.050781 477.324219 512 480.4375 512 C 481.253906 512 482.082031 511.867188 482.898438 511.585938 C 486.816406 510.226562 488.898438 505.945312 487.539062 502.023438 L 418.851562 303.589844 L 504.484375 303.589844 C 508.636719 303.589844 512 300.226562 512 296.078125 C 512 291.925781 508.636719 288.5625 504.484375 288.5625 Z M 448.375 183.355469 C 453.070312 183.355469 456.890625 187.179688 456.890625 191.875 C 456.890625 196.570312 453.070312 200.390625 448.375 200.390625 C 443.679688 200.390625 439.859375 196.570312 439.859375 191.875 C 439.859375 187.179688 443.679688 183.355469 448.375 183.355469 Z M 256 215.417969 C 260.695312 215.417969 264.515625 219.242188 264.515625 223.9375 C 264.515625 228.632812 260.695312 232.453125 256 232.453125 C 251.304688 232.453125 247.484375 228.632812 247.484375 223.9375 C 247.484375 219.242188 251.304688 215.417969 256 215.417969 Z M 63.625 183.355469 C 68.320312 183.355469 72.140625 187.179688 72.140625 191.875 C 72.140625 196.570312 68.320312 200.390625 63.625 200.390625 C 58.929688 200.390625 55.109375 196.570312 55.109375 191.875 C 55.109375 187.179688 58.929688 183.355469 63.625 183.355469 Z M 63.625 183.355469 " style=" stroke:none;fill-rule:nonzero;fill:rgb(0%,0%,0%);fill-opacity:1;" />
<path d="M 333.699219 390.941406 C 332.765625 386.898438 328.730469 384.375 324.6875 385.308594 C 320.640625 386.242188 318.121094 390.277344 319.054688 394.320312 L 344.867188 506.171875 C 345.667969 509.648438 348.761719 512 352.183594 512 C 352.742188 512 353.308594 511.9375 353.878906 511.804688 C 357.921875 510.871094 360.445312 506.839844 359.511719 502.792969 Z M 333.699219 390.941406 " style=" stroke:none;fill-rule:nonzero;fill:rgb(0%,0%,0%);fill-opacity:1;" />
<path d="M 159.8125 143.277344 L 223.9375 143.277344 C 241.339844 143.277344 255.5 129.121094 255.5 111.71875 C 255.5 94.316406 241.339844 80.15625 223.9375 80.15625 C 223.472656 80.15625 223.003906 80.167969 222.539062 80.1875 C 219.171875 66.386719 206.699219 56.109375 191.875 56.109375 C 177.050781 56.109375 164.578125 66.382812 161.210938 80.1875 C 160.746094 80.167969 160.28125 80.15625 159.8125 80.15625 C 142.410156 80.15625 128.25 94.316406 128.25 111.71875 C 128.25 129.121094 142.410156 143.277344 159.8125 143.277344 Z M 159.8125 95.183594 C 161.445312 95.183594 163.078125 95.425781 164.636719 95.902344 C 165.996094 96.320312 167.242188 96.683594 168.683594 96.527344 C 171.429688 96.230469 173.84375 94.390625 174.859375 91.824219 C 175.40625 90.441406 175.34375 89.125 175.34375 87.671875 C 175.34375 78.554688 182.757812 71.136719 191.875 71.136719 C 200.988281 71.136719 208.40625 78.554688 208.40625 87.671875 C 208.40625 89.386719 208.386719 90.914062 209.191406 92.488281 C 209.960938 93.984375 211.230469 95.199219 212.761719 95.898438 C 214.320312 96.609375 216.113281 96.761719 217.769531 96.332031 C 219.851562 95.789062 221.753906 95.183594 223.9375 95.183594 C 233.050781 95.183594 240.46875 102.601562 240.46875 111.71875 C 240.46875 120.832031 233.050781 128.25 223.9375 128.25 L 159.8125 128.25 C 150.695312 128.25 143.28125 120.832031 143.28125 111.71875 C 143.28125 102.601562 150.699219 95.183594 159.8125 95.183594 Z M 159.8125 95.183594 " style=" stroke:none;fill-rule:nonzero;fill:rgb(0%,0%,0%);fill-opacity:1;" />
<path d="M 31.5625 95.183594 L 95.6875 95.183594 C 113.089844 95.183594 127.25 81.027344 127.25 63.625 C 127.25 46.222656 113.089844 32.0625 95.6875 32.0625 C 95.222656 32.0625 94.753906 32.074219 94.289062 32.09375 C 90.921875 18.292969 78.449219 8.015625 63.625 8.015625 C 48.800781 8.015625 36.332031 18.292969 32.960938 32.09375 C 32.496094 32.074219 32.03125 32.0625 31.5625 32.0625 C 14.160156 32.0625 0 46.222656 0 63.625 C 0 81.027344 14.160156 95.183594 31.5625 95.183594 Z M 31.5625 47.089844 C 33.460938 47.089844 35.324219 47.414062 37.105469 48.046875 C 39.476562 48.890625 42.117188 48.488281 44.128906 46.980469 C 46.144531 45.46875 47.269531 43.050781 47.125 40.535156 C 47.105469 40.21875 47.09375 39.898438 47.09375 39.578125 C 47.09375 30.460938 54.507812 23.042969 63.625 23.042969 C 72.742188 23.042969 80.15625 30.460938 80.15625 39.578125 C 80.15625 39.898438 80.144531 40.21875 80.128906 40.535156 C 79.980469 43.050781 81.105469 45.46875 83.121094 46.980469 C 85.136719 48.488281 87.773438 48.890625 90.148438 48.046875 C 91.925781 47.414062 93.792969 47.089844 95.6875 47.089844 C 104.804688 47.089844 112.21875 54.507812 112.21875 63.625 C 112.21875 72.738281 104.804688 80.15625 95.6875 80.15625 L 31.5625 80.15625 C 22.445312 80.15625 15.03125 72.738281 15.03125 63.625 C 15.03125 54.507812 22.449219 47.089844 31.5625 47.089844 Z M 31.5625 47.089844 " style=" stroke:none;fill-rule:nonzero;fill:rgb(0%,0%,0%);fill-opacity:1;" />
<path d="M 352.1875 127.246094 C 378.429688 127.246094 399.78125 105.898438 399.78125 79.65625 C 399.78125 53.414062 378.429688 32.0625 352.1875 32.0625 C 325.945312 32.0625 304.59375 53.414062 304.59375 79.65625 C 304.59375 105.898438 325.945312 127.246094 352.1875 127.246094 Z M 352.1875 47.089844 C 370.144531 47.089844 384.75 61.699219 384.75 79.65625 C 384.75 97.609375 370.144531 112.21875 352.1875 112.21875 C 334.230469 112.21875 319.625 97.609375 319.625 79.65625 C 319.625 61.699219 334.230469 47.089844 352.1875 47.089844 Z M 352.1875 47.089844 " style=" stroke:none;fill-rule:nonzero;fill:rgb(0%,0%,0%);fill-opacity:1;" />
<path d="M 344.671875 143.78125 L 344.671875 151.796875 C 344.671875 155.945312 348.035156 159.308594 352.1875 159.308594 C 356.339844 159.308594 359.703125 155.945312 359.703125 151.796875 L 359.703125 143.78125 C 359.703125 139.628906 356.339844 136.265625 352.1875 136.265625 C 348.035156 136.265625 344.671875 139.628906 344.671875 143.78125 Z M 344.671875 143.78125 " style=" stroke:none;fill-rule:nonzero;fill:rgb(0%,0%,0%);fill-opacity:1;" />
<path d="M 352.1875 23.042969 C 356.339844 23.042969 359.703125 19.679688 359.703125 15.53125 L 359.703125 7.515625 C 359.703125 3.363281 356.339844 0 352.1875 0 C 348.035156 0 344.671875 3.363281 344.671875 7.515625 L 344.671875 15.53125 C 344.671875 19.679688 348.039062 23.042969 352.1875 23.042969 Z M 352.1875 23.042969 " style=" stroke:none;fill-rule:nonzero;fill:rgb(0%,0%,0%);fill-opacity:1;" />
<path d="M 301.53125 39.625 C 304.425781 42.523438 309.265625 42.519531 312.160156 39.625 C 315.09375 36.691406 315.09375 31.933594 312.15625 29 L 306.488281 23.332031 C 303.554688 20.394531 298.796875 20.398438 295.863281 23.332031 C 292.929688 26.265625 292.929688 31.023438 295.863281 33.957031 Z M 301.53125 39.625 " style=" stroke:none;fill-rule:nonzero;fill:rgb(0%,0%,0%);fill-opacity:1;" />
<path d="M 280.046875 87.167969 L 288.0625 87.167969 C 292.214844 87.167969 295.578125 83.804688 295.578125 79.65625 C 295.578125 75.503906 292.214844 72.140625 288.0625 72.140625 L 280.046875 72.140625 C 275.894531 72.140625 272.53125 75.503906 272.53125 79.65625 C 272.53125 83.804688 275.898438 87.167969 280.046875 87.167969 Z M 280.046875 87.167969 " style=" stroke:none;fill-rule:nonzero;fill:rgb(0%,0%,0%);fill-opacity:1;" />
<path d="M 301.53125 119.683594 L 295.863281 125.351562 C 292.929688 128.285156 292.929688 133.046875 295.863281 135.980469 C 298.757812 138.875 303.59375 138.875 306.488281 135.980469 L 312.15625 130.3125 C 315.09375 127.378906 315.09375 122.617188 312.160156 119.683594 C 309.222656 116.75 304.464844 116.75 301.53125 119.683594 Z M 301.53125 119.683594 " style=" stroke:none;fill-rule:nonzero;fill:rgb(0%,0%,0%);fill-opacity:1;" />
<path d="M 402.84375 119.683594 C 399.910156 116.75 395.152344 116.75 392.21875 119.683594 C 389.28125 122.617188 389.28125 127.378906 392.21875 130.3125 L 397.886719 135.980469 C 400.78125 138.875 405.617188 138.875 408.511719 135.980469 C 411.449219 133.046875 411.449219 128.285156 408.511719 125.351562 Z M 402.84375 119.683594 " style=" stroke:none;fill-rule:nonzero;fill:rgb(0%,0%,0%);fill-opacity:1;" />
<path d="M 416.3125 87.167969 L 424.328125 87.167969 C 428.480469 87.167969 431.84375 83.804688 431.84375 79.65625 C 431.84375 75.503906 428.480469 72.140625 424.328125 72.140625 L 416.3125 72.140625 C 412.160156 72.140625 408.796875 75.503906 408.796875 79.65625 C 408.796875 83.804688 412.164062 87.167969 416.3125 87.167969 Z M 416.3125 87.167969 " style=" stroke:none;fill-rule:nonzero;fill:rgb(0%,0%,0%);fill-opacity:1;" />
<path d="M 397.53125 41.828125 C 399.453125 41.828125 401.378906 41.09375 402.84375 39.625 L 408.511719 33.957031 C 411.449219 31.023438 411.449219 26.265625 408.511719 23.332031 C 405.578125 20.398438 400.820312 20.394531 397.886719 23.332031 L 392.21875 29 C 389.28125 31.933594 389.28125 36.691406 392.21875 39.625 C 393.683594 41.09375 395.605469 41.828125 397.53125 41.828125 Z M 397.53125 41.828125 " style=" stroke:none;fill-rule:nonzero;fill:rgb(0%,0%,0%);fill-opacity:1;" />
</g>
</svg>